<svg width="25" height="25" viewBox="0 0 25 25" fill="none" xmlns="http://www.w3.org/2000/svg">
<g clip-path="url(#clip0_2_133)">
<path d="M15.4056 2.98156H19.1057C19.308 2.98156 19.4719 2.81759 19.4719 2.61533C19.4719 2.41308 19.308 2.24911 19.1057 2.24911H15.4056C15.2033 2.24911 15.0394 2.41308 15.0394 2.61533C15.0394 2.81759 15.2034 2.98156 15.4056 2.98156Z" fill="#4F667A"/>
<path d="M15.4056 4.67249H17.2556C17.4579 4.67249 17.6219 4.50852 17.6219 4.30627C17.6219 4.10401 17.4579 3.94004 17.2556 3.94004H15.4056C15.2033 3.94004 15.0394 4.10401 15.0394 4.30627C15.0394 4.50852 15.2034 4.67249 15.4056 4.67249Z" fill="#4F667A"/>
<path d="M19.1064 5.64909H15.4063C15.204 5.64909 15.0401 5.81306 15.0401 6.01532C15.0401 6.21757 15.204 6.38154 15.4063 6.38154H19.1064C19.3087 6.38154 19.4726 6.21757 19.4726 6.01532C19.4726 5.81306 19.3086 5.64909 19.1064 5.64909Z" fill="#4F667A"/>
<path d="M15.4056 8.07248H17.2556C17.4579 8.07248 17.6219 7.9085 17.6219 7.70625C17.6219 7.504 17.4579 7.34003 17.2556 7.34003H15.4056C15.2033 7.34003 15.0394 7.504 15.0394 7.70625C15.0394 7.9085 15.2034 8.07248 15.4056 8.07248Z" fill="#4F667A"/>
<path d="M19.1064 9.02393H15.4063C15.204 9.02393 15.0401 9.1879 15.0401 9.39016C15.0401 9.59241 15.204 9.75638 15.4063 9.75638H19.1064C19.3087 9.75638 19.4726 9.59241 19.4726 9.39016C19.4726 9.1879 19.3086 9.02393 19.1064 9.02393Z" fill="#4F667A"/>
<path d="M15.4056 11.4473H17.2556C17.4579 11.4473 17.6219 11.2833 17.6219 11.0811C17.6219 10.8788 17.4579 10.7149 17.2556 10.7149H15.4056C15.2033 10.7149 15.0394 10.8788 15.0394 11.0811C15.0394 11.2833 15.2034 11.4473 15.4056 11.4473Z" fill="#4F667A"/>
<path d="M19.1064 12.4306H15.4063C15.204 12.4306 15.0401 12.5946 15.0401 12.7968C15.0401 12.9991 15.204 13.1631 15.4063 13.1631H19.1064C19.3087 13.1631 19.4726 12.9991 19.4726 12.7968C19.4726 12.5946 19.3086 12.4306 19.1064 12.4306Z" fill="#4F667A"/>
<path d="M17.2556 14.1215H15.4056C15.2033 14.1215 15.0394 14.2855 15.0394 14.4878C15.0394 14.69 15.2033 14.854 15.4056 14.854H17.2556C17.4579 14.854 17.6219 14.69 17.6219 14.4878C17.6219 14.2855 17.4579 14.1215 17.2556 14.1215Z" fill="#4F667A"/>
<path d="M15.9548 19.7869C15.9548 21.1932 15.403 22.5111 14.402 23.499C13.4186 24.4687 12.1216 25 10.7422 25C10.7173 25 10.6924 25 10.6675 24.9995C10.4468 24.9961 10.2285 24.9795 10.0127 24.9487C8.91009 24.7934 7.88564 24.2876 7.0775 23.4872C6.11164 22.5311 5.56181 21.2616 5.52959 19.9134C5.48613 18.0862 6.40267 16.3737 7.93398 15.3937V2.80772C7.93398 1.51275 8.81488 0.419931 10.0093 0.0971641C10.2427 0.0336851 10.4883 -7.62939e-06 10.7417 -7.62939e-06C12.2896 -7.62939e-06 13.5494 1.25932 13.5494 2.80772V15.3937C15.0383 16.3478 15.9548 18.0114 15.9548 19.7869Z" fill="#E9F5FF"/>
<path d="M15.9548 19.7869C15.9548 21.1932 15.403 22.5111 14.402 23.499C13.4185 24.4687 12.1216 25 10.7422 25C9.82953 25 9.27726 25 9.27726 25C9.52532 25 9.77093 24.9829 10.0126 24.9487C11.1133 24.7944 12.1309 24.2944 12.9371 23.499C13.9386 22.5111 14.4899 21.1932 14.4899 19.7869C14.4899 18.0114 13.5733 17.8215 12.0845 16.8674V2.80772C12.0845 1.51275 11.2031 0.419931 10.0092 0.0971641C10.2426 0.0336851 10.4882 -7.62939e-06 10.7417 -7.62939e-06C12.2896 -7.62939e-06 13.5494 1.25932 13.5494 2.80772V15.3937C15.0382 16.3478 15.9548 18.0114 15.9548 19.7869Z" fill="#CDEAF7"/>
<path d="M14.4899 19.7942C14.4899 20.805 14.0934 21.7528 13.3731 22.4628C12.6666 23.1601 11.732 23.5424 10.7383 23.5424C10.7212 23.5424 10.7046 23.5424 10.688 23.5419C10.5005 23.5395 10.3149 23.5224 10.1323 23.4926C9.37299 23.3671 8.66887 23.0087 8.1083 22.4535C7.41296 21.7655 7.01695 20.8533 6.994 19.886C6.96177 18.5202 7.67469 17.2438 8.85442 16.5543C9.18988 16.3585 9.39887 15.9947 9.39887 15.6061V2.81503C9.39887 2.2945 9.69674 1.84185 10.1313 1.61918C10.3144 1.52494 10.522 1.47221 10.7417 1.47221C11.482 1.47221 12.084 2.07477 12.084 2.81503V15.6061C12.084 15.9947 12.293 16.3585 12.6285 16.5543C13.7765 17.2253 14.4899 18.4665 14.4899 19.7942Z" fill="#FF6E6E"/>
<path d="M14.4899 19.7942C14.4899 20.805 14.0934 21.7528 13.3731 22.4628C12.6666 23.1601 11.732 23.5424 10.7383 23.5424C10.7212 23.5424 10.7046 23.5424 10.688 23.5419C10.5005 23.5395 10.3149 23.5224 10.1323 23.4926C10.8926 23.3686 11.5938 23.0141 12.1524 22.4628C12.8726 21.7528 13.2691 20.805 13.2691 19.7942C13.2691 18.4665 12.5557 17.2253 11.4077 16.5543C11.0723 16.3585 10.8633 15.9947 10.8633 15.6061V2.81503C10.8633 2.2945 10.5654 1.84234 10.1313 1.61918C10.3144 1.52494 10.522 1.47221 10.7417 1.47221C11.482 1.47221 12.084 2.07477 12.084 2.81503V15.6061C12.084 15.9947 12.293 16.3585 12.6285 16.5543C13.7765 17.2253 14.4899 18.4665 14.4899 19.7942Z" fill="#F44E92"/>
<path d="M12.084 2.81503V6.01535H9.39886V2.81503C9.39886 2.2945 9.69672 1.84185 10.1313 1.61918C10.3144 1.52494 10.5219 1.47221 10.7417 1.47221C11.4819 1.47221 12.084 2.07477 12.084 2.81503Z" fill="#4F667A"/>
<path d="M12.084 2.81503V6.01535H10.8633V2.81503C10.8633 2.2945 10.5654 1.84234 10.1313 1.61918C10.3144 1.52494 10.522 1.47221 10.7417 1.47221C11.482 1.47221 12.084 2.07477 12.084 2.81503Z" fill="#3A5366"/>
</g>
<defs>
<clipPath id="clip0_2_133">
<rect width="25" height="25" fill="white"/>
</clipPath>
</defs>
</svg>
