<svg width="48" height="48" viewBox="0 0 48 48" fill="none" xmlns="http://www.w3.org/2000/svg">
<path d="M38 28C41.314 28 44 25.314 44 22C44 18.686 41.314 16 38 16H37.938C37.978 15.672 38 15.338 38 15C38 10.582 34.418 7 30 7C26.5 7 23.524 9.248 22.44 12.378C21.67 12.132 20.852 12 20 12C15.582 12 12 15.582 12 20C12 24.418 15.582 28 20 28C20.69 28 21.36 27.912 22 27.748V28H38Z" fill="#80A2D0"/>
<path d="M12 38C7.582 38 4 34.418 4 30C4 25.582 7.582 22 12 22C12.834 22 13.636 22.128 14.392 22.364C15.518 18.68 18.946 16 23 16C27.97 16 32 20.03 32 25C32 25.47 31.964 25.93 31.894 26.38C32.55 26.134 33.258 26 34 26C37.314 26 40 28.686 40 32C40 35.314 37.314 38 34 38H12Z" fill="#9DC3F9"/>
<path d="M14 25C14 29.97 18.03 34 23 34C27.502 34 31.23 30.696 31.894 26.38C32.55 26.134 33.258 26 34 26C37.314 26 40 28.686 40 32C40 35.314 37.314 38 34 38H12C7.582 38 4 34.418 4 30C4 25.582 7.582 22 12 22C12.834 22 13.636 22.128 14.392 22.364C14.136 23.198 14 24.082 14 25Z" fill="#9DC3F9"/>
</svg>
