<svg width="42" height="42" viewBox="0 0 42 42" fill="none" xmlns="http://www.w3.org/2000/svg">
<path d="M21.008 31.0639C26.5637 31.0639 31.0674 26.5604 31.0674 21.0051C31.0674 15.4497 26.5637 10.9462 21.008 10.9462C15.4524 10.9462 10.9487 15.4497 10.9487 21.0051C10.9487 26.5604 15.4524 31.0639 21.008 31.0639Z" fill="url(#paint0_linear_2_547)"/>
<path d="M30.4618 2.10045L28.0979 7.80783C27.3273 9.66671 24.5389 8.51195 25.3094 6.65308L27.6734 0.945695C28.4439 -0.913178 31.2323 0.241576 30.4618 2.10045ZM16.6886 35.3489L14.3246 41.0563C13.5541 42.9152 10.7656 41.7604 11.5362 39.9016L13.9001 34.1942C14.6707 32.3353 17.4591 33.4901 16.6886 35.3489V35.3489ZM41.0563 14.328L35.3486 16.6918C33.4897 17.4623 32.3348 14.674 34.1938 13.9035L39.9015 11.5397C41.7604 10.7692 42.9152 13.5575 41.0563 14.328V14.328ZM7.8062 28.1005L2.09854 30.4644C0.239576 31.2349 -0.915234 28.4466 0.943729 27.6761L6.65139 25.3122C8.51035 24.5417 9.66516 27.33 7.8062 28.1005V28.1005ZM39.9015 30.4664L34.1938 28.1025C32.3348 27.332 33.4897 24.5437 35.3486 25.3142L41.0563 27.6781C42.9152 28.4486 41.7604 31.2369 39.9015 30.4664ZM6.65139 16.6938L0.943729 14.33C-0.915234 13.5595 0.239576 10.7712 2.09854 11.5417L7.8062 13.9055C9.66516 14.676 8.51035 17.4643 6.65139 16.6938V16.6938ZM14.3226 0.943684L16.6866 6.65107C17.4571 8.50994 14.6687 9.6647 13.8981 7.80582L11.5342 2.09844C10.7636 0.239565 13.5521 -0.91519 14.3226 0.943684V0.943684ZM28.0958 34.1922L30.4598 39.8996C31.2303 41.7584 28.4419 42.9132 27.6713 41.0543L25.3074 35.3469C24.5369 33.488 27.3253 32.3333 28.0958 34.1922V34.1922Z" fill="#FFB300"/>
<defs>
<linearGradient id="paint0_linear_2_547" x1="21.008" y1="10.9462" x2="21.008" y2="30.7957" gradientUnits="userSpaceOnUse">
<stop stop-color="#FFC227"/>
<stop offset="1" stop-color="#FFB300"/>
</linearGradient>
</defs>
</svg>
