<svg width="48" height="48" viewBox="0 0 48 48" fill="none" xmlns="http://www.w3.org/2000/svg">
<path d="M30.5579 31.9557C35.3798 31.9557 39.2888 28.0468 39.2888 23.2249C39.2888 18.403 35.3798 14.494 30.5579 14.494C25.736 14.494 21.8271 18.403 21.8271 23.2249C21.8271 28.0468 25.736 31.9557 30.5579 31.9557Z" fill="url(#paint0_linear_15236_9)"/>
<path d="M29.4229 7.35649L29.9904 10.5804C30.3702 12.7303 27.1442 13.2978 26.7666 11.1479L26.1991 7.924C25.8193 5.77403 29.0453 5.20652 29.4229 7.35649V7.35649ZM40.976 11.2002L39.0989 13.8828C37.846 15.6704 35.1656 13.7933 36.4163 12.0057L38.2935 9.32312C39.5463 7.53548 42.2267 9.41261 40.976 11.2002ZM18.5356 12.8067L21.2181 14.6839C23.0058 15.9367 21.1286 18.6171 19.341 17.3664L16.6584 15.4893C14.8708 14.2364 16.7479 11.556 18.5356 12.8067V12.8067ZM41.7793 29.081L44.4618 30.9582C46.2494 32.211 44.3723 34.8914 42.5847 33.6407L39.9021 31.7636C38.1145 30.5107 39.9916 27.8303 41.7793 29.081ZM46.4284 22.0876L43.2046 22.6551C41.0546 23.0349 40.4871 19.8089 42.6371 19.4313L45.8609 18.8637C48.0109 18.484 48.5784 21.71 46.4284 22.0876Z" fill="#FFB300"/>
<path d="M8.73084 42.8692C3.90924 42.8692 0 38.96 0 34.1384C0 29.3167 3.90924 25.4075 8.73084 25.4075C9.64104 25.4075 10.5163 25.5472 11.3414 25.8048C12.5702 21.7842 16.3114 18.8594 20.7358 18.8594C26.1598 18.8594 30.558 23.2575 30.558 28.6816C30.558 29.1945 30.5187 29.6965 30.4423 30.1876C31.1582 29.9192 31.9309 29.7729 32.7407 29.7729C36.3574 29.7729 39.2888 32.7043 39.2888 36.3211C39.2888 39.9378 36.3574 42.8692 32.7407 42.8692H8.73084Z" fill="url(#paint1_linear_15236_9)"/>
<path d="M10.9136 28.6815C10.9136 34.1056 15.3117 38.5037 20.7358 38.5037C25.649 38.5037 29.7176 34.8979 30.4423 30.1876C31.1582 29.9191 31.9309 29.7729 32.7407 29.7729C36.3574 29.7729 39.2888 32.7043 39.2888 36.321C39.2888 39.9378 36.3574 42.8692 32.7407 42.8692H8.73084C3.90924 42.8692 0 38.9599 0 34.1383C0 29.3167 3.90924 25.4075 8.73084 25.4075C9.64104 25.4075 10.5163 25.5472 11.3414 25.8047C11.062 26.7149 10.9136 27.6797 10.9136 28.6815Z" fill="url(#paint2_radial_15236_9)"/>
<defs>
<linearGradient id="paint0_linear_15236_9" x1="39.2888" y1="14.494" x2="27.0473" y2="26.5779" gradientUnits="userSpaceOnUse">
<stop stop-color="#FFB301"/>
<stop offset="1" stop-color="#FFC533"/>
</linearGradient>
<linearGradient id="paint1_linear_15236_9" x1="19.6444" y1="18.8594" x2="19.6444" y2="42.8692" gradientUnits="userSpaceOnUse">
<stop stop-color="#9FC7FF"/>
<stop offset="1" stop-color="#9BC1F5"/>
</linearGradient>
<radialGradient id="paint2_radial_15236_9" cx="0" cy="0" r="1" gradientUnits="userSpaceOnUse" gradientTransform="translate(12.0791 -19.007) rotate(-90) scale(22.872 7.30887)">
<stop stop-color="#486DA8" stop-opacity="0.4"/>
<stop offset="1" stop-color="#486DA8" stop-opacity="0"/>
</radialGradient>
</defs>
</svg>
