<svg width="48" height="48" viewBox="0 0 48 48" fill="none" xmlns="http://www.w3.org/2000/svg">
<path d="M12.8889 36.4444C7.98 36.4444 4 32.4644 4 27.5556C4 22.6467 7.98 18.6667 12.8889 18.6667C13.8156 18.6667 14.7067 18.8089 15.5467 19.0711C16.7978 14.9778 20.6067 12 25.1111 12C30.6333 12 35.1111 16.4778 35.1111 22C35.1111 22.5222 35.0711 23.0333 34.9933 23.5333C35.7222 23.26 36.5089 23.1111 37.3333 23.1111C41.0156 23.1111 44 26.0956 44 29.7778C44 33.46 41.0156 36.4444 37.3333 36.4444H12.8889Z" fill="url(#paint0_linear_2_537)"/>
<path d="M15.1111 22C15.1111 27.5222 19.5889 32 25.1111 32C30.1133 32 34.2556 28.3288 34.9933 23.5333C35.7222 23.26 36.5089 23.1111 37.3333 23.1111C41.0156 23.1111 44 26.0955 44 29.7777C44 33.46 41.0156 36.4444 37.3333 36.4444H12.8889C7.98 36.4444 4 32.4644 4 27.5555C4 22.6466 7.98 18.6666 12.8889 18.6666C13.8156 18.6666 14.7067 18.8088 15.5467 19.0711C15.2622 19.9977 15.1111 20.98 15.1111 22Z" fill="url(#paint1_radial_2_537)"/>
<defs>
<linearGradient id="paint0_linear_2_537" x1="24" y1="12" x2="24" y2="36.4444" gradientUnits="userSpaceOnUse">
<stop stop-color="#9FC7FF"/>
<stop offset="1" stop-color="#9BC1F5"/>
</linearGradient>
<radialGradient id="paint1_radial_2_537" cx="0" cy="0" r="1" gradientUnits="userSpaceOnUse" gradientTransform="translate(9.28216 -22.1074) rotate(-90) scale(23.286 7.44117)">
<stop stop-color="#486DA8" stop-opacity="0.4"/>
<stop offset="1" stop-color="#486DA8" stop-opacity="0"/>
</radialGradient>
</defs>
</svg>
