<svg width="48" height="48" viewBox="0 0 48 48" fill="none" xmlns="http://www.w3.org/2000/svg">
<path d="M14.218 32.926L12.118 37.924C11.798 38.688 12.156 39.568 12.92 39.888C13.684 40.208 14.564 39.85 14.884 39.086L16.984 34.088C17.304 33.324 16.946 32.444 16.182 32.124C15.418 31.804 14.538 32.162 14.218 32.926V32.926ZM30.218 32.926L28.118 37.924C27.798 38.688 28.156 39.568 28.92 39.888C29.684 40.208 30.564 39.85 30.884 39.086L32.984 34.088C33.304 33.324 32.946 32.444 32.182 32.124C31.418 31.804 30.538 32.162 30.218 32.926V32.926ZM22.218 30.926L20.118 35.924C19.798 36.688 20.156 37.568 20.92 37.888C21.684 38.208 22.564 37.85 22.884 37.086L24.984 32.088C25.304 31.324 24.946 30.444 24.182 30.124C23.418 29.804 22.538 30.162 22.218 30.926Z" fill="#66AFEB"/>
<path d="M14 28C9.582 28 6 24.418 6 20C6 15.582 9.582 12 14 12C14.834 12 15.636 12.128 16.392 12.364C17.518 8.68 20.946 6 25 6C29.97 6 34 10.03 34 15C34 15.47 33.964 15.93 33.894 16.38C34.55 16.134 35.258 16 36 16C39.314 16 42 18.686 42 22C42 25.314 39.314 28 36 28H14Z" fill="url(#paint0_linear_2_525)"/>
<path d="M16 15C16 19.97 20.03 24 25 24C29.502 24 33.23 20.696 33.894 16.38C34.55 16.134 35.258 16 36 16C39.314 16 42 18.686 42 22C42 25.314 39.314 28 36 28H14C9.582 28 6 24.418 6 20C6 15.582 9.582 12 14 12C14.834 12 15.636 12.128 16.392 12.364C16.136 13.198 16 14.082 16 15Z" fill="url(#paint1_radial_2_525)"/>
<defs>
<linearGradient id="paint0_linear_2_525" x1="24" y1="6" x2="24" y2="28" gradientUnits="userSpaceOnUse">
<stop stop-color="#9FC7FF"/>
<stop offset="1" stop-color="#9BC1F5"/>
</linearGradient>
<radialGradient id="paint1_radial_2_525" cx="0" cy="0" r="1" gradientUnits="userSpaceOnUse" gradientTransform="translate(10.7539 -24.6966) rotate(-90) scale(20.9574 6.69705)">
<stop stop-color="#486DA8" stop-opacity="0.4"/>
<stop offset="1" stop-color="#486DA8" stop-opacity="0"/>
</radialGradient>
</defs>
</svg>
