<svg width="45" height="45" viewBox="0 0 45 45" fill="none" xmlns="http://www.w3.org/2000/svg">
<g clip-path="url(#clip0_15236_67)">
<rect width="45" height="45" fill="white"/>
<path d="M22.0631 29.1248L27.5475 27.6636C28.1412 27.5025 28.7674 27.8248 28.9294 28.4264C29.0913 29.0281 28.735 29.6298 28.1412 29.7909L24.8053 30.6826L27.1912 32.0471C27.7094 32.3479 27.8929 33.0033 27.5906 33.519C27.2884 34.0347 26.6298 34.2174 26.1116 33.9165L23.7257 32.5521L24.6217 35.8719C24.7837 36.4735 24.4382 37.0752 23.8336 37.2364C23.229 37.3975 22.6245 37.043 22.4625 36.4521L20.9943 30.9942L18.5112 29.5653C17.7446 30.414 16.7298 31.0372 15.5638 31.2736V34.0992L19.58 38.0959C20.0118 38.5256 20.0118 39.2347 19.58 39.6645C19.1481 40.0942 18.4356 40.0942 18.0037 39.6645L15.5638 37.2364V39.976C15.5638 40.5669 15.078 41.0504 14.4842 41.0504C13.8904 41.0504 13.4046 40.5669 13.4046 39.976V37.2471L10.9647 39.6752C10.5329 40.105 9.82033 40.105 9.38849 39.6752C8.95665 39.2454 8.95665 38.5364 9.38849 38.1066L13.4046 34.1099V31.2843C12.2279 31.0479 11.2238 30.4248 10.4573 29.576L7.985 30.9942L6.51674 36.4521C6.3548 37.043 5.73942 37.3975 5.14564 37.2364C4.55185 37.0752 4.19558 36.4628 4.35752 35.8719L5.2536 32.5521L2.86767 33.9273C2.34946 34.2174 1.6909 34.0455 1.38861 33.5297C1.08632 33.014 1.26985 32.3587 1.77727 32.0793L4.1632 30.7041L0.827213 29.8124C0.233429 29.6512 -0.122841 29.0388 0.0391 28.4479C0.201041 27.857 0.816416 27.5025 1.4102 27.6636L6.8946 29.1248L9.37769 27.6959C9.19416 27.1694 9.0754 26.6 9.0754 26.0091C9.0754 25.4182 9.19416 24.8488 9.37769 24.3438L6.8946 22.9149L1.4102 24.376C0.80562 24.5372 0.201041 24.1826 0.0391 23.5917C-0.122841 22.9901 0.233429 22.3884 0.827213 22.2273L4.1632 21.3355L1.77727 19.9603C1.26985 19.6595 1.08632 19.0041 1.38861 18.4884C1.6801 17.9727 2.34946 17.8008 2.85687 18.0909L5.2536 19.4661L4.35752 16.1463C4.19558 15.5554 4.55185 14.9537 5.14564 14.7926C5.73942 14.6314 6.344 14.986 6.50594 15.5769L7.97421 21.0347L10.4465 22.4529C11.213 21.6041 12.2279 20.981 13.3938 20.7446V17.919L9.37769 13.9223C8.94585 13.4926 8.94585 12.7835 9.37769 12.3537C9.80954 11.924 10.5221 11.924 10.9539 12.3537L13.3938 14.7818V12.0422C13.3938 11.4512 13.8797 10.9678 14.4734 10.9678C15.0672 10.9678 15.553 11.4512 15.553 12.0422V14.7818L17.9929 12.3537C18.4248 11.924 19.1373 11.924 19.5692 12.3537C20.001 12.7835 20.001 13.4926 19.5692 13.9223L15.553 17.919V20.7446C16.719 20.981 17.7338 21.6041 18.4896 22.4422L20.9727 21.0132L22.4409 15.5554C22.6029 14.9645 23.2182 14.6099 23.812 14.7711C24.4058 14.9322 24.7621 15.5446 24.6001 16.1355L23.7041 19.4554L26.09 18.0909C26.6082 17.8008 27.2668 17.9727 27.5691 18.4884C27.8606 19.0041 27.6878 19.6595 27.1804 19.9496L24.7945 21.3141L28.1305 22.2058C28.7242 22.3669 29.0805 22.9793 28.9186 23.5702C28.7566 24.1612 28.1412 24.5157 27.5475 24.3545L22.0631 22.8934L19.58 24.3223C19.7635 24.8488 19.8823 25.4182 19.8823 26.0091C19.8823 26.6 19.7635 27.1587 19.58 27.6959L22.0631 29.1248ZM17.7123 26.0091C17.7123 24.229 16.2622 22.786 14.4735 22.786C12.6847 22.786 11.2347 24.229 11.2347 26.0091C11.2347 27.7892 12.6847 29.2322 14.4735 29.2322C16.2622 29.2322 17.7123 27.7892 17.7123 26.0091Z" fill="#CAE0FF"/>
<path d="M37.6082 16.952L40.6423 17.3694C40.9714 17.4131 41.2108 17.7105 41.1592 18.0521C41.1077 18.3937 40.7997 18.6253 40.4705 18.5816L38.6243 18.3292L39.5065 19.5321C39.6971 19.7957 39.6445 20.1692 39.382 20.3684C39.1195 20.5676 38.7536 20.5212 38.563 20.2576L37.6809 19.0547L37.3977 20.94C37.3461 21.2816 37.0434 21.5155 36.709 21.4695C36.3745 21.4236 36.1529 21.1143 36.2021 20.7782L36.6701 17.6798L35.7539 16.4234C35.1888 16.6942 34.5501 16.797 33.9214 16.6704L33.3029 18.1132L34.4157 21.006C34.5353 21.3171 34.3801 21.6791 34.0723 21.807C33.7645 21.9348 33.4119 21.7836 33.2922 21.4726L32.6162 19.7151L32.0165 21.114C31.8872 21.4158 31.5409 21.5596 31.247 21.4336C30.9532 21.3076 30.8186 20.9577 30.9479 20.6559L31.5452 19.2625L29.8062 19.9847C29.4984 20.1125 29.1458 19.9614 29.0261 19.6503C28.9065 19.3393 29.0617 18.9772 29.3695 18.8494L32.2319 17.6606L32.8504 16.2178C32.3197 15.8474 31.9592 15.3162 31.7657 14.7202L30.2317 14.9199L28.3104 17.3953C28.1009 17.6626 27.7187 17.7131 27.4601 17.5049C27.2016 17.2966 27.1593 16.9083 27.3688 16.641L28.5389 15.1359L27.0571 15.3319C26.7371 15.3701 26.4488 15.1426 26.4121 14.8152C26.3754 14.4877 26.6096 14.192 26.9219 14.157L28.4037 13.961L26.9479 12.7979C26.6893 12.5896 26.6471 12.2014 26.8565 11.934C27.066 11.6666 27.4482 11.6161 27.7068 11.8244L30.1012 13.734L31.6429 13.5312C31.6673 13.2234 31.7332 12.9075 31.8625 12.6057C31.9918 12.304 32.1752 12.0384 32.3766 11.8195L31.4605 10.5631L28.4264 10.1457C28.0919 10.0997 27.8703 9.79041 27.9195 9.45432C27.971 9.11275 28.279 8.88112 28.6082 8.9248L30.4544 9.1772L29.5746 7.96881C29.3893 7.70756 29.4419 7.33398 29.7044 7.13478C29.9615 6.93329 30.3304 6.98752 30.5181 7.24329L31.4032 8.45396L31.6864 6.56869C31.7356 6.23261 32.0436 6.00098 32.3728 6.04466C32.7019 6.08834 32.9235 6.39764 32.8743 6.73372L32.4063 9.83209L33.3195 11.0807C33.8846 10.81 34.5232 10.7071 35.152 10.8337L35.7705 9.39093L34.6577 6.49812C34.5381 6.18707 34.6933 5.82499 35.0011 5.69717C35.3088 5.56935 35.6615 5.72051 35.7811 6.03157L36.4572 7.78903L37.0569 6.3901C37.1862 6.08837 37.5325 5.94457 37.8263 6.07054C38.1202 6.19651 38.2548 6.54645 38.1255 6.84818L37.5258 8.2471L39.2648 7.5249C39.5726 7.39707 39.9252 7.54824 40.0449 7.85929C40.1645 8.17035 40.0093 8.53242 39.7016 8.66025L36.8391 9.84901L36.2206 11.2918C36.7459 11.6599 37.1118 12.1934 37.3024 12.7816L38.8441 12.5787L40.7654 10.1034C40.9748 9.83599 41.357 9.7855 41.6156 9.99376C41.8742 10.202 41.9165 10.5903 41.707 10.8577L40.5368 12.3627L42.0163 12.1722C42.3363 12.134 42.6246 12.3615 42.6613 12.689C42.6927 13.0141 42.4637 13.3121 42.1491 13.3526L40.6696 13.5431L42.1255 14.7062C42.3841 14.9145 42.4263 15.3028 42.2168 15.5701C42.0074 15.8375 41.6252 15.888 41.3666 15.6797L38.9722 13.7701L37.4305 13.973C37.4061 14.2807 37.3402 14.5967 37.2109 14.8984C37.0815 15.2001 36.9005 15.4602 36.6921 15.6956L37.6082 16.952ZM36.137 14.438C36.5266 13.5291 36.1248 12.4846 35.2395 12.1051C34.3543 11.7256 33.3208 12.1549 32.9311 13.0638C32.5415 13.9728 32.9433 15.0172 33.8285 15.3967C34.7138 15.7762 35.7473 15.347 36.137 14.438Z" fill="#82AAE2"/>
<path d="M37.1368 30.8319L38.6134 30.3989C38.7733 30.3512 38.9419 30.4467 38.9855 30.625C39.0291 30.8032 38.9331 30.9815 38.7733 31.0293L37.8751 31.2935L38.5175 31.6978C38.657 31.7869 38.7064 31.9811 38.625 32.1339C38.5436 32.2867 38.3663 32.3408 38.2268 32.2517L37.5845 31.8474L37.8257 32.831C37.8693 33.0093 37.7763 33.1876 37.6135 33.2353C37.4507 33.2831 37.288 33.178 37.2444 33.0029L36.8491 31.3858L36.1806 30.9624C35.9742 31.2139 35.701 31.3985 35.387 31.4686V32.3058L36.4683 33.49C36.5846 33.6173 36.5846 33.8274 36.4683 33.9547C36.352 34.0821 36.1602 34.0821 36.0439 33.9547L35.387 33.2353V34.0471C35.387 34.2221 35.2562 34.3654 35.0964 34.3654C34.9365 34.3654 34.8057 34.2221 34.8057 34.0471V33.2385L34.1488 33.9579C34.0326 34.0853 33.8407 34.0853 33.7244 33.9579C33.6082 33.8306 33.6082 33.6205 33.7244 33.4932L34.8057 32.309V31.4717C34.4889 31.4017 34.2186 31.2171 34.0122 30.9656L33.3466 31.3858L32.9513 33.0029C32.9077 33.178 32.742 33.2831 32.5821 33.2353C32.4223 33.1876 32.3264 33.0061 32.37 32.831L32.6112 31.8474L31.9688 32.2548C31.8293 32.3408 31.652 32.2899 31.5706 32.1371C31.4892 31.9843 31.5387 31.7901 31.6753 31.7073L32.3176 31.2998L31.4195 31.0356C31.2596 30.9879 31.1637 30.8064 31.2073 30.6313C31.2509 30.4562 31.4166 30.3512 31.5764 30.3989L33.053 30.8319L33.7215 30.4085C33.6721 30.2525 33.6402 30.0838 33.6402 29.9087C33.6402 29.7336 33.6721 29.5649 33.7215 29.4153L33.053 28.9919L31.5764 29.4248C31.4137 29.4726 31.2509 29.3675 31.2073 29.1925C31.1637 29.0142 31.2596 28.8359 31.4195 28.7882L32.3176 28.524L31.6753 28.1165C31.5387 28.0274 31.4892 27.8332 31.5706 27.6804C31.6491 27.5276 31.8293 27.4766 31.9659 27.5626L32.6112 27.9701L32.37 26.9864C32.3264 26.8113 32.4223 26.633 32.5821 26.5853C32.742 26.5375 32.9048 26.6426 32.9484 26.8177L33.3437 28.4348L34.0093 28.855C34.2157 28.6035 34.4889 28.4189 34.8028 28.3489V27.5117L33.7215 26.3274C33.6053 26.2001 33.6053 25.99 33.7215 25.8627C33.8378 25.7353 34.0296 25.7353 34.1459 25.8627L34.8028 26.5821V25.7704C34.8028 25.5953 34.9336 25.452 35.0935 25.452C35.2533 25.452 35.3841 25.5953 35.3841 25.7704V26.5821L36.041 25.8627C36.1573 25.7353 36.3491 25.7353 36.4654 25.8627C36.5817 25.99 36.5817 26.2001 36.4654 26.3274L35.3841 27.5117V28.3489C35.6981 28.4189 35.9713 28.6035 36.1747 28.8518L36.8433 28.4285L37.2386 26.8113C37.2822 26.6362 37.4478 26.5312 37.6077 26.5789C37.7676 26.6267 37.8635 26.8081 37.8199 26.9832L37.5786 27.9669L38.221 27.5626C38.3605 27.4766 38.5378 27.5276 38.6192 27.6804C38.6977 27.8332 38.6512 28.0274 38.5146 28.1133L37.8722 28.5176L38.7704 28.7818C38.9302 28.8296 39.0261 29.011 38.9825 29.1861C38.9389 29.3612 38.7733 29.4662 38.6134 29.4185L37.1368 28.9855L36.4683 29.4089C36.5177 29.5649 36.5497 29.7336 36.5497 29.9087C36.5497 30.0838 36.5177 30.2493 36.4683 30.4085L37.1368 30.8319ZM35.9655 29.9087C35.9655 29.3813 35.5751 28.9537 35.0935 28.9537C34.6119 28.9537 34.2215 29.3813 34.2215 29.9087C34.2215 30.4361 34.6119 30.8637 35.0935 30.8637C35.5751 30.8637 35.9655 30.4361 35.9655 29.9087Z" fill="#88BAFF"/>
</g>
<defs>
<clipPath id="clip0_15236_67">
<rect width="45" height="45" fill="white"/>
</clipPath>
</defs>
</svg>
