<svg width="48" height="48" viewBox="0 0 48 48" fill="none" xmlns="http://www.w3.org/2000/svg">
<path d="M39 26C42.314 26 45 23.314 45 20C45 16.686 42.314 14 39 14H38.938C38.978 13.672 39 13.338 39 13C39 8.582 35.418 5 31 5C27.5 5 24.524 7.248 23.44 10.378C22.67 10.132 21.852 10 21 10C16.582 10 13 13.582 13 18C13 22.418 16.582 26 21 26C21.69 26 22.36 25.912 23 25.748V26H39Z" fill="#80A2D0"/>
<path d="M11 30C6.582 30 3 26.418 3 22C3 17.582 6.582 14 11 14C11.834 14 12.636 14.128 13.392 14.364C14.518 10.68 17.946 8 22 8C26.97 8 31 12.03 31 17C31 17.47 30.964 17.93 30.894 18.38C31.55 18.134 32.258 18 33 18C36.314 18 39 20.686 39 24C39 27.314 36.314 30 33 30H11Z" fill="#9DC3F9"/>
<path d="M13 17C13 21.97 17.03 26 22 26C26.502 26 30.23 22.696 30.894 18.38C31.55 18.134 32.258 18 33 18C36.314 18 39 20.686 39 24C39 27.314 36.314 30 33 30H11C6.582 30 3 26.418 3 22C3 17.582 6.582 14 11 14C11.834 14 12.636 14.128 13.392 14.364C13.136 15.198 13 16.082 13 17Z" fill="#9DC3F9"/>
<path d="M20.5 23H17L13.0001 30.5426L16.6038 30.5426L13.5 39L21 27.8919H17.4831L20.5 23Z" fill="#FFB300" stroke="#FFB300" stroke-width="0.2"/>
</svg>
